<svg xmlns="http://www.w3.org/2000/svg" viewBox="0 0 32 32">
  <defs>
    <linearGradient id="goldGradient" x1="0%" y1="0%" x2="100%" y2="100%">
      <stop offset="0%" style="stop-color:#fde047;stop-opacity:1" />
      <stop offset="100%" style="stop-color:#ca8a04;stop-opacity:1" />
    </linearGradient>
  </defs>
  <!-- Background Circle for better visibility -->
  <circle cx="16" cy="16" r="15" fill="#020617" />
  <!-- Lightbulb Icon -->
  <path d="M16 6C11.58 6 8 9.58 8 14c0 2.76 1.91 5.07 4.5 5.73V22c0 .55.45 1 1 1h5c.55 0 1-.45 1-1v-2.27c2.59-.66 4.5-2.97 4.5-5.73 0-4.42-3.58-8-8-8zm-2.5 18c0 .55.45 1 1 1h3c.55 0 1-.45 1-1v-1h-5v1z" fill="url(#goldGradient)" />
  <path d="M13 26c0 .55.45 1 1 1h4c.55 0 1-.45 1-1v-1h-6v1z" fill="#fde047" opacity="0.6" />
</svg>